<?xml version="1.0" encoding="UTF-8"?><svg id="Layer_2" xmlns="http://www.w3.org/2000/svg" viewBox="0 0 145.91 65.89"><defs><style>.cls-1{fill:#fbfdfa;}.cls-2{fill:none;stroke:#fff;stroke-linecap:round;stroke-linejoin:round;stroke-width:.85px;}</style></defs><g id="Postcard_Front"><g><g><path class="cls-1" d="M2.43,10.61V.17h.84V9.9H7.96v.71H2.43Z"/><path class="cls-1" d="M20.67,0c3,0,5.28,2.41,5.28,5.39s-2.26,5.39-5.28,5.39-5.28-2.38-5.28-5.39S17.66,0,20.67,0Zm0,10c2.59,0,4.41-2.01,4.41-4.61S23.27,.78,20.67,.78s-4.42,2.03-4.42,4.61,1.84,4.61,4.42,4.61Z"/><path class="cls-1" d="M35.95,2.54c-.1-.12-.23-.26-.29-.36,.01,.17,.03,.39,.03,.67v7.77h-.84V0h.01l6.81,8.25c.1,.13,.23,.28,.29,.36-.01-.16-.01-.39-.01-.67V.19h.83V10.78h-.01l-6.81-8.25Z"/><path class="cls-1" d="M52.47,10.61V.17h6.19V.88h-5.35V4.97h4.55v.71h-4.55v4.22h5.57v.71h-6.41Z"/><path class="cls-1" d="M67.66,10.61V.17h.84V9.9h4.7v.71h-5.54Z"/><path class="cls-1" d="M81.65,10.61V.17h.84V10.61h-.84Z"/><path class="cls-1" d="M93.29,2.54c-.1-.12-.23-.26-.29-.36,.01,.17,.03,.39,.03,.67v7.77h-.84V0h.01l6.81,8.25c.1,.13,.23,.28,.29,.36-.01-.16-.01-.39-.01-.67V.19h.83V10.78h-.01l-6.81-8.25Z"/><path class="cls-1" d="M109.81,10.61V.17h6.19V.88h-5.35V4.97h4.55v.71h-4.55v4.22h5.57v.71h-6.41Z"/><path class="cls-1" d="M124.1,10.16v-.86c.65,.3,1.7,.71,2.88,.71,1.41,0,2.51-.67,2.51-1.83s-.55-1.75-2.48-2.45c-2.15-.77-2.91-1.68-2.91-3.12,0-1.68,1.48-2.62,3.23-2.62,1.03,0,1.94,.29,2.48,.55v.83c-.57-.26-1.55-.61-2.46-.61-1.39,0-2.41,.71-2.41,1.83,0,1.01,.49,1.73,2.45,2.44,2.16,.77,2.94,1.62,2.94,3.12,0,1.67-1.42,2.64-3.33,2.64-1.19,0-2.25-.32-2.9-.62Z"/><path class="cls-1" d="M138.16,10.16v-.86c.65,.3,1.7,.71,2.88,.71,1.41,0,2.51-.67,2.51-1.83s-.55-1.75-2.48-2.45c-2.15-.77-2.91-1.68-2.91-3.12,0-1.68,1.48-2.62,3.23-2.62,1.03,0,1.94,.29,2.48,.55v.83c-.57-.26-1.55-.61-2.46-.61-1.39,0-2.41,.71-2.41,1.83,0,1.01,.49,1.73,2.45,2.44,2.16,.77,2.94,1.62,2.94,3.12,0,1.67-1.42,2.64-3.33,2.64-1.19,0-2.25-.32-2.9-.62Z"/><path class="cls-1" d="M.88,55.92c.41-.22,1.33-.55,2.46-.55,1.93,0,2.84,.94,2.84,2.75v4.67h-.77v-.99c-.01-.38,.04-.64,.04-.64h-.03c0,.06-.9,1.8-2.77,1.8-1.33,0-2.23-.81-2.23-1.99,0-1.83,1.97-2.73,4.96-2.28v-.55c0-1.52-.84-2.04-2.12-2.04-1.07,0-2.01,.38-2.39,.61v-.8Zm4.51,3.44c-2.59-.42-4.13,.28-4.13,1.58,0,.77,.58,1.3,1.49,1.3,1.52,0,2.64-1.51,2.64-2.88Z"/><path class="cls-1" d="M9.73,55.54v1.2c0,.33-.04,.58-.06,.59h.03c.38-1.07,1.59-1.97,2.75-1.97,1.35,0,2.09,.65,2.26,1.88h.03c.41-.99,1.48-1.88,2.68-1.88,1.86,0,2.46,1.09,2.46,2.84v4.58h-.81v-4.35c0-1.29-.26-2.31-1.7-2.31-1.65,0-2.57,1.68-2.57,3.16v3.49h-.8v-4.36c0-1.17-.17-2.29-1.65-2.29-1.64,0-2.62,1.65-2.62,3.16v3.49h-.8v-7.25h.78Z"/><path class="cls-1" d="M29.3,59.17c0,2.17-1.55,3.8-3.64,3.8s-3.64-1.62-3.64-3.8,1.55-3.8,3.64-3.8,3.64,1.62,3.64,3.8Zm-.81,0c0-1.77-1.17-3.06-2.83-3.06s-2.83,1.29-2.83,3.06,1.17,3.06,2.83,3.06,2.83-1.29,2.83-3.06Z"/><path class="cls-1" d="M32.49,55.54v1.2c0,.33-.04,.58-.06,.59h.03c.26-.68,1.26-1.97,3-1.97,1.86,0,2.41,1.1,2.41,2.84v4.58h-.8v-4.35c0-1.19-.16-2.31-1.68-2.31-1.64,0-2.88,1.35-2.88,3.1v3.55h-.8v-7.25h.78Z"/><path class="cls-1" d="M43.52,61.72c1.77,.17,2.88,.73,2.88,2.04s-1.33,2.13-3.28,2.13-3.2-.7-3.2-1.99c0-.9,.96-1.64,2.12-1.86-.75-.07-1.16-.42-1.16-.88,0-.39,.36-.74,.9-.91-1.03-.36-1.71-1.25-1.71-2.35,0-1.48,1.2-2.54,2.81-2.54,.38,0,.75,.06,1.07,.17h2.61v.67h-1.12c-.25,0-.54-.09-.54-.09h-.06c.52,.42,.84,1.04,.84,1.78,0,1.44-1.17,2.48-2.74,2.51h-.09c-.65,.04-1.17,.33-1.17,.64,0,.39,.41,.54,1.83,.67Zm2.07,2.09c0-.74-.61-1.41-2.57-1.41-1.36,0-2.29,.68-2.29,1.44,0,.9,.97,1.36,2.41,1.36,1.55,0,2.45-.57,2.45-1.39Zm-.68-5.9c0-1.04-.84-1.83-2.03-1.83s-2.02,.78-2.02,1.83,.83,1.83,2.02,1.83,2.03-.77,2.03-1.83Z"/><path class="cls-1" d="M52.46,55.54v-2.17h.8v2.17h2.36v.68h-2.36v4.41c0,1.19,.49,1.61,1.19,1.61,.44,0,.99-.12,1.44-.35v.73c-.33,.19-.9,.35-1.54,.35-.96,0-1.88-.52-1.88-2.17v-4.57h-1.3v-.68h1.3Z"/><path class="cls-1" d="M57.55,52.35h.8v4.35c0,.33-.06,.59-.06,.64h.03c.26-.68,1.25-1.97,2.99-1.97,1.86,0,2.41,1.1,2.41,2.84v4.58h-.8v-4.35c0-1.19-.16-2.31-1.68-2.31-1.64,0-2.88,1.35-2.88,3.1v3.55h-.8v-10.44Z"/><path class="cls-1" d="M72.52,58.76c0,.16-.01,.32-.01,.44h-5.81v.1c0,1.74,1.16,2.93,2.86,2.93,.97,0,1.96-.29,2.7-.77v.81c-.64,.38-1.61,.7-2.71,.7-2.15,0-3.68-1.54-3.68-3.8s1.51-3.8,3.46-3.8c2.06,0,3.2,1.61,3.2,3.39Zm-3.22-2.65c-1.51,0-2.42,1.2-2.58,2.46h4.96c0-1.26-.83-2.46-2.38-2.46Z"/><path class="cls-1" d="M78.74,62.79v-10.44h.8v10.44h-.8Z"/><path class="cls-1" d="M82.26,55.92c.41-.22,1.33-.55,2.46-.55,1.93,0,2.84,.94,2.84,2.75v4.67h-.77v-.99c-.01-.38,.04-.64,.04-.64h-.03c0,.06-.9,1.8-2.77,1.8-1.33,0-2.23-.81-2.23-1.99,0-1.83,1.97-2.73,4.96-2.28v-.55c0-1.52-.84-2.04-2.12-2.04-1.07,0-2.01,.38-2.39,.61v-.8Zm4.51,3.44c-2.59-.42-4.13,.28-4.13,1.58,0,.77,.58,1.3,1.49,1.3,1.52,0,2.64-1.51,2.64-2.88Z"/><path class="cls-1" d="M91.12,55.54v1.2c0,.33-.04,.58-.06,.59h.03c.26-.68,1.26-1.97,3-1.97,1.86,0,2.41,1.1,2.41,2.84v4.58h-.8v-4.35c0-1.19-.16-2.31-1.68-2.31-1.64,0-2.88,1.35-2.88,3.1v3.55h-.8v-7.25h.78Z"/><path class="cls-1" d="M105.46,62.79h-.78v-.97c0-.33,.04-.57,.04-.57h-.03c-.41,.87-1.46,1.71-2.71,1.71-1.93,0-3.35-1.64-3.35-3.8s1.42-3.8,3.35-3.8c1.25,0,2.29,.81,2.68,1.65h.03s-.04-.25-.04-.58v-4.09h.81v10.44Zm-6.02-3.62c0,1.73,1.01,3.06,2.58,3.06,1.25,0,2.64-.93,2.64-3.06s-1.39-3.06-2.64-3.06c-1.57,0-2.58,1.29-2.58,3.06Z"/><path class="cls-1" d="M108.71,55.54v-.93c0-1.51,.88-2.44,2.38-2.44,.36,0,.71,.06,.83,.09v.74c-.12-.03-.41-.09-.75-.09-1.09,0-1.67,.58-1.67,1.73v.9h2.07v.68h-2.06v6.57h-.81v-6.57h-1.16v-.68h1.17Z"/><path class="cls-1" d="M119.89,59.17c0,2.17-1.55,3.8-3.64,3.8s-3.64-1.62-3.64-3.8,1.55-3.8,3.64-3.8,3.64,1.62,3.64,3.8Zm-.81,0c0-1.77-1.17-3.06-2.83-3.06s-2.83,1.29-2.83,3.06,1.17,3.06,2.83,3.06,2.83-1.29,2.83-3.06Z"/><path class="cls-1" d="M122.16,55.54h.78v1.2c0,.32-.06,.57-.04,.58h.01c.38-1.1,1.19-1.96,2.3-1.96,.2,0,.41,.04,.42,.04v.78s-.17-.03-.35-.03c-1.62,0-2.33,1.94-2.33,3.41v3.22h-.8v-7.25Z"/><path class="cls-1" d="M128.35,55.54v1.2c0,.33-.04,.58-.06,.59h.03c.38-1.07,1.59-1.97,2.75-1.97,1.35,0,2.09,.65,2.26,1.88h.03c.41-.99,1.48-1.88,2.68-1.88,1.86,0,2.46,1.09,2.46,2.84v4.58h-.81v-4.35c0-1.29-.26-2.31-1.7-2.31-1.65,0-2.57,1.68-2.57,3.16v3.49h-.8v-4.36c0-1.17-.17-2.29-1.65-2.29-1.64,0-2.62,1.65-2.62,3.16v3.49h-.8v-7.25h.78Z"/><path class="cls-1" d="M142.8,59.5c-1.25-.39-2.23-1.01-2.23-2.19s1.04-1.94,2.49-1.94c.68,0,1.45,.17,2,.44v.78c-.57-.29-1.3-.49-1.93-.49-1.1,0-1.78,.45-1.78,1.22s.61,1.12,1.78,1.49c1.57,.49,2.35,1.07,2.35,2.22,0,1.32-1.1,1.94-2.52,1.94-.87,0-1.74-.19-2.36-.48v-.8c.75,.35,1.62,.55,2.32,.55,.93,0,1.78-.36,1.78-1.2s-.61-1.15-1.9-1.54Z"/></g><g><path class="cls-2" d="M.42,45.9c1.64-1.63,3.27-3.26,4.91-4.89,.5-.5,1.03-.98,1.49-1.52,.84-.99,1.85-1.59,3.14-1.81,1.56-.27,3.12-.3,4.68-.17,2.09,.17,4.18,.29,6.27,.11,1.47-.12,2.88,.11,4.28,.51,2.83,.8,5.66,1.63,8.51,2.35,2.06,.52,4.17,.68,6.3,.61,2.03-.07,3.91-.68,5.78-1.36,2.78-1.01,5.62-1.72,8.61-1.75,2.51-.03,5.01-.13,7.52-.21,.8-.03,1.61-.21,2.39-.13,1.07,.1,2.14,.35,3.19,.6,1.7,.41,3.4,.87,5.09,1.33,.55,.15,1.07,.37,1.62,.53,1.68,.48,3.34,.18,4.98-.2,1.47-.34,2.9-.86,4.38-1.13,1.53-.28,3.1-.47,4.65-.5,2.12-.04,4.15,.56,6.17,1.18,2.2,.68,4.43,1.27,6.75,1.52,4.06,.43,8.12,.78,12.15,1.5,2.8,.5,5.61,.88,8.41,1.36,1.24,.21,2.46,.58,3.71,.8,1.63,.28,3.27,.52,4.91,.69,1.19,.12,2.4,.09,3.6,.15,2.74,.11,5.47,.24,8.21,.35,.98,.04,1.96,.07,2.94,.1,.13,0,.27,.02,.4,.08"/><path class="cls-2" d="M.42,45.91c1.06-.22,2.12-.45,3.19-.66,1.62-.32,3.24-.55,4.91-.6,1.29-.03,2.57-.43,3.85-.63,1.3-.2,2.57-.45,3.76-1.03,.39-.19,.8-.33,1.2-.51,.89-.39,1.81-.67,2.78-.67,1.64-.01,3.2-.47,4.8-.71,1.06-.16,2.06-.57,3.09-.68,1.51-.16,3.05-.04,4.58,0,1.3,.04,2.6,.23,3.9,.2,2.02-.05,4.04-.2,6.06-.36,.44-.03,.88-.21,1.28-.39,1.74-.78,3.56-1.28,5.41-1.77,2.25-.6,4.39-1.58,6.57-2.42,.94-.36,1.88-.69,2.91-.71,.45,0,.9-.18,1.35-.29,1.21-.3,2.32,.09,3.39,.57,.37,.17,.7,.21,1.07,.08,1.37-.45,2.78-.56,4.21-.59,.78-.02,1.57-.2,2.32-.41,.76-.21,1.48-.59,2.24-.81,.69-.2,1.4-.38,2.11-.43,1.14-.08,2.23-.32,3.33-.65,1.35-.41,2.77-.62,4.17-.84,.52-.08,1.08,.02,1.6,.13,.56,.12,1.07,.05,1.49-.3,.99-.81,2.12-1.01,3.36-1.01,.94,0,1.88-.23,2.82-.28,1.02-.05,2.04,0,3.06,0,.24,0,.48,.05,.72,.03,1.24-.11,2.38,.19,3.48,.73,.25,.12,.54,.17,.8,.27,.84,.31,1.68,.64,2.52,.92,.27,.09,.6,.17,.86,.1,.89-.24,1.76-.19,2.6,.17,1.24,.53,2.52,.89,3.85,1.08,.38,.05,.78,.08,1.17,.06,1.68-.09,3.17,.45,4.5,1.43,1.7,1.24,3.36,2.53,5.27,3.44,.78,.38,1.62,.64,2.41,1,1.01,.46,2.03,.72,3.17,.57,1.41-.18,2.71,.37,4.02,.83,2.94,1.04,5.88,2.1,8.86,3.01,1.73,.53,3.38,1.22,5.04,1.92,.27,.11,.56,.16,.97,.27"/><path class="cls-2" d="M.42,45.88c.46-.14,.91-.29,1.37-.42,2.34-.7,4.67-1.44,7.03-2.07,2.36-.62,4.78-1.01,7.12-1.7,3.16-.93,6.36-1.07,9.61-1.02,1.77,.03,3.55-.03,5.33-.14,1.78-.11,3.37-.88,4.98-1.6,.89-.4,1.86-.62,2.76-1.01,1.82-.78,3.7-1.47,5.4-2.46,2.83-1.65,5.6-3.42,8.29-5.29,3.71-2.59,7.33-5.33,10.97-8.01,1.32-.97,2.8-1.29,4.38-1.11,2.2,.24,4.4,.51,6.58,.84,1.13,.17,2.25,.46,3.34,.81,2.32,.75,4.64,1.16,7.12,1.01,3.32-.2,6.63,.16,9.87,1,1.45,.38,2.9,.85,4.38,1.06,2.42,.34,4.87,.44,7.29,.76,1.92,.25,3.86,.52,5.71,1.06,2.08,.6,4.11,1.42,6.07,2.33,1.22,.57,2.37,1.07,3.76,1.06,1.29,0,2.41,.69,3.37,1.52,2.39,2.09,4.71,4.26,7.11,6.33,1.04,.89,2.31,1.52,3.3,2.45,1.14,1.06,2.49,1.54,3.89,2.03,.88,.31,1.72,.76,2.57,1.14,1.1,.49,2.2,.98,3.44,1.53"/><path class="cls-2" d="M.42,45.99s0-.01,0-.02c1.37-.2,2.74-.4,4.12-.59,.28-.04,.57-.03,.85,0,1.22,.17,2.4,.03,3.57-.34,.8-.25,1.61-.5,2.42-.71,.35-.09,.72-.08,1.08-.1,1.5-.12,3-.27,4.5-.33,1.07-.04,2.06-.39,3.06-.68,.75-.22,1.49-.45,2.25-.63,.27-.07,.56-.02,.84-.03,.46,0,.93-.01,1.39-.01,.28,0,.57-.03,.84,.02,.66,.13,1.31,.33,1.97,.42,.35,.05,.79,0,1.08-.16,.9-.54,1.84-.82,2.88-.82,.14,0,.3-.08,.43-.15,.6-.36,1.24-.53,1.94-.46,.52,.06,1.05,.04,1.55,.18,1.4,.37,2.77,.22,4.11-.2,1.19-.37,2.28-.26,3.33,.35,.6,.35,1.1,.28,1.7-.04,1.21-.64,2.45-1.25,3.73-1.76,.76-.3,1.61-.38,2.41-.56,.85-.19,1.69-.37,2.53-.58,.45-.11,.89-.3,1.35-.38,1.24-.21,2.24-.99,3.4-1.4,.36-.13,.74-.21,1.11-.31,.2-.06,.39-.12,.58-.19,.55-.2,1.09-.41,1.64-.6,.61-.22,1.21-.48,1.84-.61,1.21-.26,2.35-.94,3.63-.82,1.03,.1,2.09,.19,3.07,.49,1.13,.35,2.21,.28,3.34,.1,1.2-.19,2.42-.32,3.63-.45,1.12-.12,2.24-.23,3.37-.31,1.07-.08,2.14-.12,3.21-.16,.8-.03,1.61-.05,2.41-.08,.14,0,.28-.04,.4-.1,1.56-.76,3.08-.86,4.52,.29,.58,.46,1.28,.59,1.99,.57,1.05-.03,1.98,.21,2.89,.74,.51,.3,1.13,.42,1.7,.63,.39,.14,.8,.25,1.15,.47,1.04,.65,2.2,.89,3.39,1.05,.14,.02,.29,0,.43,0,1.31-.16,2.54,.07,3.63,.84,.85,.6,1.75,1.06,2.76,1.32,.16,.04,.33,.09,.5,.09,.77-.04,1.49,.14,2.19,.44,.11,.05,.27,.01,.41-.02,.56-.12,1.11-.24,1.66-.38,.14-.04,.29-.1,.41-.19,1.13-.83,1.82-.78,3.06-.08,.25,.14,.48,.31,.68,.52,.84,.86,1.91,1.1,3.05,1.26,1.24,.18,2.49,.4,3.68,.78,1.28,.41,2.5,.52,3.75-.01,1.74-.73,3.44-.59,5.11,.25,.88,.44,1.82,.65,2.82,.66,1.05,0,2.1,.09,3.14,.2,.37,.04,.74,.24,1.07,.44,1.27,.78,2.59,1.35,4.09,1.52,.49,.06,.96,.33,1.44,.51"/><path class="cls-2" d="M.42,45.99c.59-.46,1.17-.83,1.64-1.31,1.42-1.45,3.1-2.55,4.86-3.52,1.16-.65,2.38-1.17,3.79-1.17,.88,0,1.76-.21,2.64-.36,1.03-.18,2.08-.33,3.07-.65,1.64-.53,3.33-.71,5-1.04,1.17-.24,2.32-.55,3.5-.72,1.4-.21,2.81-.38,4.22-.42,2.16-.05,4.29-.29,6.37-.87,1.12-.31,2.04-.98,2.81-1.82,.94-1.03,2.06-1.67,3.43-1.91,.58-.1,1.17-.33,1.7-.6,1.36-.7,2.81-1.06,4.28-1.4,1.1-.25,2.19-.53,3.28-.8,.9-.23,1.82-.41,2.7-.7,1.31-.43,2.52-1.05,3.65-1.88,1.48-1.08,3.16-1.4,5-1.03,1.7,.35,3.29,.95,4.82,1.76,1.43,.75,3.02,1.04,4.56,1.45,2.02,.53,4.09,.74,6.18,.9,1.09,.08,2.17,.36,3.25,.54,.41,.07,.84,.11,1.24,.22,.48,.13,1,.24,1.39,.51,1.23,.86,2.64,1.25,4.07,1.49,1.51,.26,2.95,.73,4.4,1.17,.68,.2,1.38,.33,2.05,.55,.72,.24,1.46,.48,2.1,.86,1.73,1.04,3.58,1.79,5.5,2.41,1.85,.59,3.68,1.22,5.55,1.73,.96,.27,1.98,.41,2.98,.45,1.48,.06,2.96,.02,4.44-.04,1.53-.07,3,.25,4.48,.5,1.37,.23,2.74,.19,4.12,.15,1.49-.05,2.99,0,4.48,.01,.33,0,.66,0,.98,.01,.82,.03,1.65,.01,2.47,.12,.48,.06,1.01,.22,1.39,.5,1.34,1.03,2.94,1.55,4.4,2.34,.77,.42,1.61,.51,2.42,.77,.69,.22,1.37,.45,2.05,.69,1.15,.41,2.28,.86,3.51,.97,.1,0,.2,.05,.29,.13"/></g></g></g></svg>